<?xml version="1.0" encoding="utf-8"?><svg xmlns="http://www.w3.org/2000/svg" xmlns:xlink="http://www.w3.org/1999/xlink"><symbol viewBox="0 0 45 45" id="facebook" xmlns="http://www.w3.org/2000/svg"><path d="M22.5 0C10.074 0 0 10.135 0 22.636 0 33.932 8.227 43.296 18.985 45V29.18H13.27v-6.544h5.715v-4.987c0-5.678 3.36-8.809 8.497-8.809 2.462 0 5.04.442 5.04.442v5.566h-2.844c-2.79 0-3.663 1.748-3.663 3.539v4.244h6.235l-.997 6.545h-5.238v15.82C36.773 43.3 45 33.934 45 22.636 45 10.136 34.926 0 22.5 0z"/></symbol><symbol viewBox="0 0 46 45" id="instagram" xmlns="http://www.w3.org/2000/svg"><path d="M30.368 22.5a7.031 7.031 0 01-14.063 0c0-.4.043-.792.115-1.172h-2.458v9.368c0 .652.527 1.179 1.179 1.179h16.394a1.179 1.179 0 001.177-1.179v-9.368h-2.459c.073.38.115.771.115 1.172zm-7.031 4.688a4.69 4.69 0 10-.003-9.379 4.69 4.69 0 00.003 9.378zm5.625-9.61h2.81a.705.705 0 00.705-.703v-2.81a.705.705 0 00-.705-.706h-2.81a.706.706 0 00-.706.706v2.81a.709.709 0 00.706.703zM23.337 0a22.5 22.5 0 100 45 22.5 22.5 0 000-45zm11.718 31.615a2.612 2.612 0 01-2.603 2.604h-18.23a2.612 2.612 0 01-2.604-2.604v-18.23a2.612 2.612 0 012.604-2.604h18.23a2.612 2.612 0 012.603 2.604v18.23z"/></symbol><symbol viewBox="0 0 46 45" id="telegram" xmlns="http://www.w3.org/2000/svg"><path d="M23.419 0C10.989 0 .919 10.071.919 22.5S10.988 45 23.418 45s22.5-10.071 22.5-22.5S35.847 0 23.419 0zm11.05 15.415l-3.692 17.402c-.273 1.233-1.008 1.532-2.033.952l-5.625-4.146-2.713 2.613c-.299.299-.553.553-1.133.553l.399-5.725 10.424-9.418c.454-.4-.1-.626-.7-.227l-12.883 8.11-5.552-1.733c-1.207-.38-1.234-1.206.254-1.787l21.693-8.365c1.007-.363 1.887.245 1.56 1.77h.002z"/></symbol></svg>